<?xml version="1.0" encoding="UTF-8" standalone="no"?>
<svg width="70px" height="70px" viewBox="0 0 70 70" version="1.1" xmlns="http://www.w3.org/2000/svg" xmlns:xlink="http://www.w3.org/1999/xlink">
    <!-- Generator: Sketch 43.1 (39012) - http://www.bohemiancoding.com/sketch -->
    <title>Github Copy</title>
    <desc>Created with Sketch.</desc>
    <defs></defs>
    <g id="Icons" stroke="none" stroke-width="1" fill="none" fill-rule="evenodd">
        <g transform="translate(-619.000000, -508.000000)" id="Icon-Set">
            <g transform="translate(69.000000, 66.000000)">
                <g id="Github-Copy" transform="translate(550.000000, 442.000000)">
                    <circle id="Oval-1-Copy-44" fill="#4183C4" cx="35" cy="35" r="35"></circle>
                    <path d="M36.2089167,44.201458 C35.7908611,44.6183886 35.4564167,44.8219877 35.1873056,44.8219877 C34.9181944,44.8219877 34.58375,44.6183886 34.1656944,44.201458 C33.8985278,43.9328473 33.4676389,43.9328473 33.20125,44.201458 C32.9329167,44.4689009 32.9329167,44.9021816 33.20125,45.1680673 C33.8775278,45.8481585 34.5320278,46.1864522 35.1873056,46.1864522 C35.8425833,46.1864522 36.4963056,45.8481585 37.1733611,45.1692352 C37.4413056,44.9021816 37.4413056,44.4689009 37.1733611,44.201458 C36.9065833,43.9340152 36.4753056,43.9340152 36.2089167,44.201458" id="Fill-93" fill="#FFFFFF"></path>
                    <path d="M47.9498889,42.7992511 C47.7072222,43.7086346 47.4011667,44.4732019 47.0301667,45.0886708 C46.6595556,45.7049182 46.1411667,46.2250108 45.4718889,46.6501165 C44.8033889,47.0744436 44.1558889,47.4018372 43.5301667,47.6354117 C42.9048333,47.868597 42.0963333,48.0492279 41.1054444,48.1792511 C40.1153333,48.3084957 39.2275,48.3886896 38.4431111,48.4159399 C37.6602778,48.4431903 36.6725,48.4564262 35.4813333,48.4564262 C34.2913333,48.4564262 33.3058889,48.4431903 32.5285,48.4159399 C31.7503333,48.3886896 30.8671667,48.3084957 29.8758889,48.1792511 C28.8861667,48.0492279 28.0776667,47.868597 27.4523333,47.6354117 C26.8250556,47.4018372 26.1802778,47.0744436 25.511,46.6501165 C24.8425,46.2250108 24.3225556,45.7049182 23.9511667,45.0886708 C23.5825,44.4732019 23.2737222,43.7086346 23.0314444,42.7992511 C22.7883889,41.8883104 22.6670556,40.8512395 22.6670556,39.6872598 C22.6670556,37.7022656 23.3966111,35.9014059 24.8545556,34.2866273 C25.2920556,33.7937851 25.7995556,33.4204551 26.3762778,33.1674161 C26.9533889,32.9132091 27.6098333,32.7699501 28.3456111,32.7364711 C29.0806111,32.7022135 29.7817778,32.7084421 30.4498889,32.7555463 C31.1183889,32.8038184 31.9451667,32.8692192 32.9294444,32.9517489 C33.9148889,33.0335 34.765,33.0739862 35.4813333,33.0739862 C36.1992222,33.0739862 37.0497222,33.0335 38.0328333,32.9517489 C39.0182778,32.8692192 39.8454444,32.8038184 40.5135556,32.7555463 C41.1816667,32.7084421 41.8828333,32.7022135 42.6178333,32.7364711 C43.3543889,32.7699501 44.0127778,32.9132091 44.5953333,33.1674161 C45.1798333,33.4204551 45.6892778,33.7937851 46.1275556,34.2866273 C47.5866667,35.9014059 48.3150556,37.7022656 48.3150556,39.6872598 C48.3150556,40.8512395 48.1929444,41.8883104 47.9498889,42.7992511 M50.4387778,26.8737504 C50.5173333,26.4934132 50.5935556,25.9554132 50.6670556,25.2624754 C50.7405556,24.568759 50.7121667,23.7668198 50.5838333,22.8578256 C50.4566667,21.9492207 50.2163333,21.0219298 49.864,20.0755637 L49.5906111,20.0210629 C49.409,19.983691 49.1103333,19.9961483 48.6969444,20.0576563 C48.2847222,20.1183857 47.8017222,20.2293336 47.2491111,20.3889428 C46.6953333,20.5489414 45.9825,20.8654349 45.1067222,21.3384233 C44.2313333,21.8098546 43.3085,22.4093625 42.3358889,23.1338328 C40.6819444,22.6300904 38.4046111,22.1033799 35.5,22.1033799 C32.5957778,22.1033799 30.3110556,22.6300904 28.6454444,23.1338328 C27.674,22.4093625 26.7476667,21.8129689 25.8648889,21.3469877 C24.9856111,20.8810065 24.2805556,20.5610094 23.7505,20.3889428 C23.2223889,20.2172656 22.7339444,20.1067069 22.2828333,20.0576563 C21.8348333,20.0082163 21.5458889,19.993034 21.4179444,20.01172 C21.2896111,20.0296273 21.1958889,20.0506491 21.136,20.0755637 C20.7836667,21.0219298 20.5394444,21.9492207 20.4064444,22.8578256 C20.2730556,23.7668198 20.2419444,24.5648661 20.3158333,25.2527431 C20.3889444,25.9402308 20.4675,26.4809559 20.5526667,26.8737504 C20.6370556,27.2673234 20.7342778,27.6040601 20.8439444,27.8866852 C18.9485,30.0854001 18,32.7197315 18,35.7892902 C18,37.4963307 18.1454444,39.0445405 18.4375,40.4319732 C18.7283889,41.8205738 19.1386667,43.0234826 19.6679444,44.0426462 C20.1960556,45.062199 20.8645556,45.9556216 21.6726667,46.7233032 C22.4823333,47.4905955 23.3592778,48.1235825 24.3077778,48.6214855 C25.2547222,49.1189993 26.3397222,49.5203582 27.5616111,49.8282873 C28.7823333,50.1346592 30.0248333,50.3495478 31.2887222,50.472953 C32.5537778,50.5955796 33.9448333,50.6570875 35.4638333,50.6570875 C36.9820556,50.6570875 38.3773889,50.5955796 39.6463333,50.472953 C40.9172222,50.3495478 42.1628333,50.1346592 43.3835556,49.8282873 C44.6046667,49.5203582 45.6923889,49.1189993 46.6463333,48.6214855 C47.6010556,48.1235825 48.485,47.4905955 49.3001111,46.7244711 C50.1132778,45.9567894 50.7852778,45.062199 51.3133889,44.0426462 C51.8415,43.0234826 52.2548889,41.8205738 52.5535556,40.4331411 C52.8498889,39.0445405 53,37.4963307 53,35.7892902 C53,32.7314103 52.0515,30.0974682 50.1560556,27.8866852 C50.2653333,27.5923813 50.3594444,27.2540875 50.4387778,26.8737504" id="Fill-94" fill="#FFFFFF"></path>
                    <path d="M28.1875,36 C26.98,36 26,37.470741 26,39.2848365 C26,41.098932 26.98,42.5692836 28.1875,42.5692836 C29.395,42.5692836 30.375,41.098932 30.375,39.2848365 C30.375,37.470741 29.395,36 28.1875,36" id="Fill-95" fill="#FFFFFF"></path>
                    <path d="M41.1875,36 C39.98,36 39,37.470741 39,39.2848365 C39,41.098932 39.98,42.5692836 41.1875,42.5692836 C42.395,42.5692836 43.375,41.098932 43.375,39.2848365 C43.375,37.470741 42.395,36 41.1875,36" id="Fill-96" fill="#FFFFFF"></path>
                </g>
            </g>
        </g>
    </g>
</svg>