<?xml version="1.0" encoding="UTF-8" standalone="no"?>
<svg width="60px" height="60px" viewBox="0 0 60 60" version="1.1" xmlns="http://www.w3.org/2000/svg" xmlns:xlink="http://www.w3.org/1999/xlink">
    <!-- Generator: Sketch 43.1 (39012) - http://www.bohemiancoding.com/sketch -->
    <title>Twitter</title>
    <desc>Created with Sketch.</desc>
    <defs></defs>
    <g id="Page-1" stroke="none" stroke-width="1" fill="none" fill-rule="evenodd">
        <g id="Desktop-HD" transform="translate(-274.000000, -452.000000)">
            <g id="Links" transform="translate(274.000000, 344.000000)">
                <g id="Twitter" transform="translate(0.000000, 103.000000)">
                    <g transform="translate(0.000000, 5.000000)">
                        <circle id="Oval-1" fill="#55ACEE" cx="30" cy="30" r="30"></circle>
                        <path d="M43.7418286,18.5255429 C42.8950667,19.0679238 40.9509143,19.8560762 39.9921143,19.8560762 L39.9921143,19.8576952 C38.8973143,18.714 37.355981,18 35.6465905,18 C32.3265714,18 29.634419,20.6921524 29.634419,24.0108762 C29.634419,24.471981 29.6878476,24.9217524 29.7866095,25.3530667 L29.7856381,25.3530667 C25.2820952,25.2348762 20.3566286,22.9776 17.3915048,19.1142286 C15.5684571,22.2697524 17.1460571,25.7792 19.2148762,27.0579238 C18.5067048,27.1113524 17.2030476,26.9763238 16.5894286,26.3776 C16.5483048,28.472 17.5553524,31.2470476 21.2273524,32.2537714 C20.5201524,32.6342476 19.2683048,32.5251238 18.723981,32.4441714 C18.9150286,34.2121714 21.3908762,36.5235238 24.0982476,36.5235238 C23.1332952,37.6396952 19.5027429,39.6641524 15.4285714,39.0200952 C18.1955238,40.703581 21.4203429,41.6785714 24.833619,41.6785714 C34.5333333,41.6785714 42.0661143,33.8174476 41.6607048,24.1196762 C41.6590857,24.1089905 41.6590857,24.0983048 41.6581143,24.0866476 C41.6590857,24.0617143 41.6607048,24.036781 41.6607048,24.0108762 C41.6607048,23.9807619 41.6581143,23.9522667 41.6571429,23.9231238 C42.5401714,23.319219 43.7249905,22.2509714 44.5714286,20.8449905 C44.0805333,21.1153714 42.6078476,21.656781 41.2374857,21.7911619 C42.1169524,21.3164571 43.4199619,19.7618476 43.7418286,18.5255429" id="Fill-1" fill="#FFFFFF"></path>
                    </g>
                </g>
            </g>
        </g>
    </g>
</svg>